<svg width="84" height="84" viewBox="0 0 84 84" fill="none" xmlns="http://www.w3.org/2000/svg">
<path d="M24.2209 0L0 24.3704V59.6296L24.2209 84H59.7791L84 59.6296V24.3704L59.7791 0H24.2209Z" fill="#FC1F16"/>
<path fill-rule="evenodd" clip-rule="evenodd" d="M3.09204 24.9401L25.6784 2.0741H58.837L81.4233 24.9401V58.0229L58.837 80.8889H25.6784L3.09204 58.0229V24.9401ZM5.15337 25.8107L26.5509 4.14813H57.9644L79.362 25.8107V57.1522L57.9644 78.8148H26.5509L5.15337 57.1522V25.8107Z" fill="white"/>
<path d="M75.8555 47.1975V50.8889H65.2461V47.1975H75.8555ZM66.9551 30.9827V50.8889H62.1562V30.9827H66.9551ZM74.4883 38.885V42.4534H65.2461V38.885H74.4883ZM75.8965 30.9827V34.6877H65.2461V30.9827H75.8965Z" fill="white"/>
<path d="M43.8906 30.9827H51.7246C53.2559 30.9827 54.5866 31.2105 55.7168 31.6663C56.847 32.122 57.7174 32.7965 58.3281 33.6897C58.9479 34.5829 59.2578 35.6858 59.2578 36.9983C59.2578 38.1376 59.0801 39.0901 58.7246 39.8557C58.3691 40.6213 57.8724 41.2548 57.2344 41.7561C56.6055 42.2483 55.8717 42.6539 55.0332 42.9729L53.4609 43.8616H46.8848L46.8574 40.1565H51.7246C52.3353 40.1565 52.8411 40.0471 53.2422 39.8284C53.6432 39.6096 53.944 39.2997 54.1445 38.8987C54.3542 38.4885 54.459 38.0009 54.459 37.4358C54.459 36.8616 54.3542 36.3694 54.1445 35.9592C53.9349 35.5491 53.625 35.2346 53.2148 35.0159C52.8138 34.7971 52.3171 34.6877 51.7246 34.6877H48.6895V50.8889H43.8906V30.9827ZM54.7871 50.8889L50.3848 42.0842L55.4707 42.0569L59.9277 50.6838V50.8889H54.7871Z" fill="white"/>
<path d="M33.2402 35.1663L28.3867 50.8889H23.2324L30.5469 30.9827H33.8145L33.2402 35.1663ZM37.2598 50.8889L32.3926 35.1663L31.7637 30.9827H35.0723L42.4277 50.8889H37.2598ZM37.0684 43.4651V47.1702H26.8555V43.4651H37.0684Z" fill="white"/>
<path d="M16.9434 44.135H11.9941V40.4299H16.9434C17.6178 40.4299 18.1647 40.316 18.584 40.0881C19.0033 39.8603 19.3086 39.5458 19.5 39.1448C19.7005 38.7346 19.8008 38.2743 19.8008 37.7639C19.8008 37.217 19.7005 36.7112 19.5 36.2463C19.3086 35.7815 19.0033 35.4078 18.584 35.1252C18.1647 34.8336 17.6178 34.6877 16.9434 34.6877H13.7988V50.8889H9V30.9827H16.9434C18.5384 30.9827 19.9102 31.2743 21.0586 31.8577C22.2161 32.441 23.1048 33.2431 23.7246 34.2639C24.3444 35.2756 24.6543 36.4332 24.6543 37.7366C24.6543 39.0217 24.3444 40.1428 23.7246 41.0999C23.1048 42.0569 22.2161 42.8043 21.0586 43.342C19.9102 43.8707 18.5384 44.135 16.9434 44.135Z" fill="white"/>
</svg>
