<svg width="84" height="84" viewBox="0 0 84 84" fill="none" xmlns="http://www.w3.org/2000/svg">
<circle cx="42" cy="42" r="35.9277" fill="white"/>
<path d="M56.0738 56.738V65.2771H33.2078V56.738H56.0738ZM37.9518 19.2289V65.2771H27.3253V19.2289L37.9518 19.2289ZM54.1446 37.5091V45.7636H33.2078V37.5091H54.1446ZM56.1687 19.2289V27.7997H33.2078V19.2289L56.1687 19.2289Z" fill="black"/>
<path fill-rule="evenodd" clip-rule="evenodd" d="M42 84C65.196 84 84 65.196 84 42C84 18.804 65.196 0 42 0C18.804 0 0 18.804 0 42C0 65.196 18.804 84 42 84ZM42 75.9036C60.7244 75.9036 75.9036 60.7244 75.9036 42C75.9036 23.2756 60.7244 8.09639 42 8.09639C23.2756 8.09639 8.09639 23.2756 8.09639 42C8.09639 60.7244 23.2756 75.9036 42 75.9036Z" fill="#FC1F16"/>
</svg>
